<?xml version="1.0" encoding="UTF-8"?>
<svg id="Layer_2" data-name="Layer 2" xmlns="http://www.w3.org/2000/svg" viewBox="0 0 774.69 1059.41">
  <defs>
    <style>
      .cls-1 {
        fill: #74c462;
      }
    </style>
  </defs>
  <g id="Layer_1-2" data-name="Layer 1">
    <g>
      <g>
        <path class="cls-1" d="m209.75,1059.41c-12.12,0-22.43-2.11-30.93-6.33-8.5-4.22-15.09-10.31-19.77-18.28-4.68-7.97-7.21-17.49-7.61-28.56-.13-5.66-.2-11.76-.2-18.28s.07-12.68.2-18.48c.4-10.94,2.93-20.29,7.61-28.07,4.67-7.78,11.33-13.77,19.96-17.99,8.63-4.22,18.88-6.32,30.74-6.32,9.62,0,18.05,1.28,25.3,3.85,7.24,2.57,13.28,5.86,18.08,9.88,4.81,4.02,8.43,8.34,10.88,12.95,2.44,4.61,3.72,8.9,3.85,12.85.13,1.19-.2,2.18-.99,2.97-.79.79-1.85,1.18-3.17,1.18h-20.36c-1.31,0-2.3-.26-2.96-.79-.66-.52-1.25-1.32-1.78-2.37-1.06-2.77-2.7-5.5-4.94-8.2-2.24-2.7-5.27-4.97-9.1-6.82-3.82-1.85-8.76-2.77-14.82-2.77-8.96,0-16.11,2.37-21.45,7.12-5.33,4.74-8.2,12.58-8.6,23.52-.39,11.47-.39,23.06,0,34.79.4,11.2,3.32,19.24,8.8,24.12,5.47,4.87,12.69,7.31,21.64,7.31,5.93,0,11.23-1.05,15.91-3.16,4.67-2.11,8.37-5.4,11.07-9.88,2.7-4.48,4.05-10.21,4.05-17.2v-6.13h-24.12c-1.31,0-2.44-.46-3.36-1.38-.92-.92-1.38-2.11-1.38-3.56v-10.48c0-1.45.46-2.64,1.38-3.56.92-.92,2.04-1.38,3.36-1.38h47.24c1.45,0,2.6.46,3.46,1.38.86.92,1.28,2.11,1.28,3.56v20.76c0,11.07-2.41,20.62-7.21,28.66-4.81,8.04-11.66,14.23-20.56,18.58-8.89,4.35-19.41,6.53-31.52,6.53Z"/>
        <path class="cls-1" d="m337.44,1059.41c-10.54,0-19.41-1.85-26.58-5.54-7.18-3.69-12.65-8.89-16.41-15.61-3.75-6.73-5.9-14.56-6.42-23.53-.13-2.37-.19-5.27-.19-8.7s.06-6.32.19-8.69c.52-9.1,2.73-16.97,6.62-23.62,3.88-6.65,9.42-11.83,16.61-15.52,7.18-3.69,15.91-5.53,26.19-5.53s19.01,1.85,26.19,5.53c7.18,3.69,12.72,8.87,16.61,15.52,3.88,6.65,6.09,14.53,6.62,23.62.13,2.37.2,5.27.2,8.69s-.07,6.33-.2,8.7c-.52,8.96-2.67,16.8-6.42,23.53-3.75,6.72-9.22,11.93-16.4,15.61-7.18,3.69-16.05,5.54-26.59,5.54Zm0-19.57c6.99,0,12.38-2.21,16.21-6.62,3.82-4.42,5.93-10.9,6.33-19.47.13-1.97.2-4.54.2-7.71s-.07-5.73-.2-7.71c-.4-8.43-2.5-14.89-6.33-19.37-3.82-4.48-9.22-6.72-16.21-6.72s-12.38,2.24-16.21,6.72c-3.82,4.48-5.93,10.94-6.32,19.37-.13,1.98-.2,4.55-.2,7.71s.07,5.74.2,7.71c.39,8.57,2.5,15.06,6.32,19.47,3.82,4.42,9.22,6.62,16.21,6.62Z"/>
        <path class="cls-1" d="m454.45,1059.41c-10.54,0-19.41-1.85-26.58-5.54-7.18-3.69-12.65-8.89-16.41-15.61-3.75-6.73-5.9-14.56-6.42-23.53-.13-2.37-.19-5.27-.19-8.7s.06-6.32.19-8.69c.52-9.1,2.73-16.97,6.62-23.62,3.88-6.65,9.42-11.83,16.61-15.52,7.18-3.69,15.91-5.53,26.19-5.53s19.01,1.85,26.19,5.53c7.18,3.69,12.72,8.87,16.61,15.52,3.88,6.65,6.09,14.53,6.62,23.62.13,2.37.2,5.27.2,8.69s-.07,6.33-.2,8.7c-.52,8.96-2.67,16.8-6.42,23.53-3.75,6.72-9.22,11.93-16.4,15.61-7.18,3.69-16.05,5.54-26.59,5.54Zm0-19.57c6.99,0,12.38-2.21,16.21-6.62,3.82-4.42,5.93-10.9,6.33-19.47.13-1.97.2-4.54.2-7.71s-.07-5.73-.2-7.71c-.4-8.43-2.5-14.89-6.33-19.37-3.82-4.48-9.22-6.72-16.21-6.72s-12.38,2.24-16.21,6.72c-3.82,4.48-5.93,10.94-6.32,19.37-.13,1.98-.2,4.55-.2,7.71s.07,5.74.2,7.71c.39,8.57,2.5,15.06,6.32,19.47s9.22,6.62,16.21,6.62Z"/>
        <path class="cls-1" d="m564.16,1059.41c-6.85,0-12.88-1.16-18.08-3.46-5.21-2.3-9.52-5.56-12.95-9.78-3.43-4.22-6.06-9.19-7.9-14.92-1.85-5.73-2.9-12.02-3.17-18.87-.13-2.37-.19-4.51-.19-6.42s.06-4.05.19-6.42c.27-6.59,1.28-12.72,3.06-18.38s4.42-10.64,7.91-14.92c3.49-4.28,7.84-7.61,13.05-9.98,5.2-2.37,11.23-3.56,18.08-3.56s13.14,1.22,18.08,3.66c4.94,2.44,9.06,5.57,12.35,9.39v-43.88c0-1.32.43-2.44,1.28-3.36.86-.92,2.01-1.38,3.46-1.38h16.8c1.31,0,2.44.46,3.36,1.38.92.92,1.38,2.04,1.38,3.36v130.86c0,1.32-.46,2.44-1.38,3.36-.92.92-2.04,1.38-3.36,1.38h-15.62c-1.45,0-2.6-.46-3.46-1.38-.86-.92-1.28-2.04-1.28-3.36v-7.32c-3.3,4.09-7.48,7.45-12.55,10.08-5.07,2.64-11.43,3.96-19.07,3.96Zm7.31-21.15c5.54,0,9.95-1.25,13.25-3.76,3.29-2.5,5.73-5.7,7.31-9.59,1.58-3.88,2.44-7.87,2.57-11.96.13-2.37.2-4.9.2-7.61s-.07-5.24-.2-7.61c-.13-3.95-1.06-7.74-2.77-11.36-1.71-3.63-4.22-6.62-7.51-8.99s-7.58-3.56-12.85-3.56c-5.53,0-9.92,1.22-13.14,3.66-3.23,2.44-5.57,5.63-7.02,9.59-1.45,3.95-2.3,8.3-2.57,13.04-.13,3.96-.13,7.91,0,11.86.27,4.75,1.12,9.1,2.57,13.05,1.45,3.95,3.79,7.15,7.02,9.59,3.23,2.44,7.61,3.66,13.14,3.66Z"/>
      </g>
      <g>
        <path class="cls-1" d="m387.34,774.69C173.77,774.69,0,600.92,0,387.34S173.77,0,387.34,0s387.34,173.77,387.34,387.34-173.77,387.34-387.34,387.34Zm0-720.32c-183.61,0-332.98,149.37-332.98,332.98s149.37,332.98,332.98,332.98,332.98-149.37,332.98-332.98S570.95,54.36,387.34,54.36Z"/>
        <g>
          <circle class="cls-1" cx="268.2" cy="284.73" r="61.28"/>
          <circle class="cls-1" cx="506.49" cy="284.73" r="61.28"/>
        </g>
        <path class="cls-1" d="m387.34,596.9c-70.57,0-132.41-45.13-153.88-112.3-4.57-14.3,3.32-29.59,17.61-34.17,14.33-4.55,29.6,3.32,34.17,17.61,14.24,44.56,55.27,74.49,102.1,74.49s87.85-29.93,102.1-74.49c4.57-14.29,19.87-22.19,34.17-17.61,14.3,4.57,22.18,19.86,17.61,34.17-21.47,67.17-83.31,112.3-153.88,112.3Z"/>
      </g>
    </g>
  </g>
</svg>