<?xml version="1.0" encoding="UTF-8"?>
<svg id="Layer_2" data-name="Layer 2" xmlns="http://www.w3.org/2000/svg" viewBox="0 0 774.69 1059.41">
  <defs>
    <style>
      .cls-1 {
        fill: #eba540;
      }
    </style>
  </defs>
  <g id="Layer_1-2" data-name="Layer 1">
    <g>
      <g>
        <path class="cls-1" d="m33.33,1057.44c-1.45,0-2.64-.46-3.56-1.38s-1.38-2.04-1.38-3.36v-128.68c0-1.45.46-2.64,1.38-3.56s2.11-1.39,3.56-1.39h15.62c1.84,0,3.23.49,4.15,1.48.92.99,1.51,1.75,1.78,2.27l38.15,71.16,38.55-71.16c.26-.52.86-1.28,1.78-2.27.92-.99,2.3-1.48,4.15-1.48h15.42c1.45,0,2.63.46,3.56,1.39.92.92,1.38,2.11,1.38,3.56v128.68c0,1.32-.46,2.44-1.38,3.36-.93.92-2.11,1.38-3.56,1.38h-16.61c-1.45,0-2.6-.46-3.46-1.38-.86-.92-1.28-2.04-1.28-3.36v-85.59l-27.68,52.78c-.66,1.19-1.51,2.21-2.57,3.06-1.06.86-2.44,1.28-4.15,1.28h-8.1c-1.85,0-3.26-.43-4.25-1.28-.99-.86-1.81-1.88-2.47-3.06l-27.68-52.78v85.59c0,1.32-.46,2.44-1.38,3.36-.92.92-2.05,1.38-3.36,1.38h-16.61Z"/>
        <path class="cls-1" d="m230.6,1059.41c-14.63,0-26.23-4.22-34.79-12.65-8.57-8.43-13.18-20.43-13.84-35.98-.13-1.32-.2-3-.2-5.04s.07-3.66.2-4.84c.52-9.88,2.8-18.45,6.82-25.69,4.02-7.25,9.59-12.82,16.7-16.7,7.12-3.88,15.48-5.83,25.11-5.83,10.67,0,19.64,2.21,26.88,6.62,7.24,4.42,12.72,10.54,16.41,18.38,3.69,7.84,5.53,16.9,5.53,27.18v4.15c0,1.32-.46,2.44-1.38,3.36-.92.92-2.11,1.38-3.56,1.38h-65.62v1.58c.13,4.61,1.02,8.87,2.67,12.75,1.65,3.89,4.08,7.02,7.31,9.39,3.23,2.38,7.08,3.56,11.56,3.56,3.69,0,6.79-.56,9.29-1.68,2.5-1.12,4.55-2.41,6.13-3.85,1.58-1.45,2.7-2.64,3.36-3.56,1.19-1.58,2.14-2.53,2.87-2.87.72-.33,1.81-.49,3.26-.49h17c1.32,0,2.4.39,3.26,1.18.86.8,1.22,1.78,1.09,2.97-.13,2.11-1.22,4.68-3.26,7.71-2.04,3.03-4.98,6-8.79,8.9-3.82,2.9-8.6,5.3-14.33,7.21-5.73,1.91-12.29,2.87-19.67,2.87Zm-21.75-62.26h43.69v-.6c0-5.14-.86-9.62-2.57-13.44-1.71-3.82-4.22-6.85-7.51-9.09-3.3-2.24-7.25-3.36-11.86-3.36s-8.57,1.12-11.86,3.36c-3.3,2.24-5.77,5.27-7.41,9.09-1.65,3.82-2.47,8.3-2.47,13.44v.6Z"/>
        <path class="cls-1" d="m338.53,1059.41c-6.85,0-12.88-1.16-18.08-3.46-5.21-2.3-9.52-5.56-12.95-9.78-3.43-4.22-6.06-9.19-7.9-14.92-1.85-5.73-2.9-12.02-3.17-18.87-.13-2.37-.19-4.51-.19-6.42s.06-4.05.19-6.42c.27-6.59,1.28-12.72,3.06-18.38,1.78-5.66,4.42-10.64,7.91-14.92,3.49-4.28,7.84-7.61,13.05-9.98,5.2-2.37,11.23-3.56,18.08-3.56s13.14,1.22,18.08,3.66c4.94,2.44,9.06,5.57,12.35,9.39v-43.88c0-1.32.43-2.44,1.28-3.36.86-.92,2.01-1.38,3.46-1.38h16.8c1.32,0,2.44.46,3.36,1.38.92.92,1.38,2.04,1.38,3.36v130.86c0,1.32-.46,2.44-1.38,3.36-.92.92-2.04,1.38-3.36,1.38h-15.62c-1.45,0-2.6-.46-3.46-1.38-.86-.92-1.28-2.04-1.28-3.36v-7.32c-3.3,4.09-7.48,7.45-12.55,10.08-5.07,2.64-11.43,3.96-19.07,3.96Zm7.31-21.15c5.54,0,9.95-1.25,13.25-3.76,3.29-2.5,5.73-5.7,7.31-9.59,1.58-3.88,2.44-7.87,2.57-11.96.13-2.37.2-4.9.2-7.61s-.07-5.24-.2-7.61c-.13-3.95-1.06-7.74-2.77-11.36s-4.22-6.62-7.51-8.99c-3.29-2.37-7.58-3.56-12.85-3.56-5.53,0-9.92,1.22-13.14,3.66-3.23,2.44-5.57,5.63-7.02,9.59-1.45,3.95-2.3,8.3-2.57,13.04-.13,3.96-.13,7.91,0,11.86.27,4.75,1.12,9.1,2.57,13.05,1.45,3.95,3.79,7.15,7.02,9.59,3.23,2.44,7.61,3.66,13.14,3.66Z"/>
        <path class="cls-1" d="m425.49,937.65c-1.45,0-2.61-.43-3.46-1.28-.86-.86-1.28-2.01-1.28-3.46v-14.23c0-1.32.42-2.44,1.28-3.36.85-.92,2-1.39,3.46-1.39h17.99c1.45,0,2.64.46,3.56,1.39.92.92,1.38,2.04,1.38,3.36v14.23c0,1.45-.46,2.61-1.38,3.46-.92.86-2.11,1.28-3.56,1.28h-17.99Zm.79,119.78c-1.32,0-2.44-.46-3.36-1.38-.92-.92-1.38-2.04-1.38-3.36v-93.3c0-1.32.46-2.44,1.38-3.36s2.04-1.38,3.36-1.38h16.41c1.45,0,2.6.46,3.46,1.38.86.92,1.28,2.05,1.28,3.36v93.3c0,1.32-.43,2.44-1.28,3.36-.86.92-2.01,1.38-3.46,1.38h-16.41Z"/>
        <path class="cls-1" d="m511.87,1059.41c-8.04,0-14.99-1.82-20.85-5.44-5.86-3.63-10.38-8.76-13.54-15.42-3.16-6.65-4.74-14.53-4.74-23.62v-55.55c0-1.32.46-2.44,1.38-3.36.92-.92,2.05-1.38,3.36-1.38h17.4c1.45,0,2.6.46,3.46,1.38.86.92,1.28,2.05,1.28,3.36v54.36c0,16.34,7.18,24.52,21.55,24.52,6.85,0,12.29-2.18,16.31-6.53,4.02-4.35,6.03-10.35,6.03-17.99v-54.36c0-1.32.46-2.44,1.38-3.36s2.04-1.38,3.36-1.38h17.4c1.32,0,2.44.46,3.36,1.38.92.92,1.38,2.05,1.38,3.36v93.3c0,1.32-.46,2.44-1.38,3.36-.92.92-2.04,1.38-3.36,1.38h-16.01c-1.45,0-2.61-.46-3.46-1.38-.86-.92-1.28-2.04-1.28-3.36v-8.11c-3.56,4.61-7.97,8.24-13.24,10.87-5.27,2.64-11.86,3.96-19.77,3.96Z"/>
        <path class="cls-1" d="m601.21,1057.44c-1.32,0-2.44-.46-3.36-1.38-.92-.92-1.38-2.04-1.38-3.36v-93.3c0-1.32.46-2.44,1.38-3.36s2.04-1.38,3.36-1.38h15.42c1.32,0,2.44.46,3.36,1.38.92.92,1.38,2.05,1.38,3.36v6.72c2.77-3.69,6.49-6.82,11.17-9.39,4.67-2.57,10.24-3.92,16.7-4.05,15.02-.27,25.5,5.6,31.43,17.59,3.03-5.27,7.41-9.52,13.14-12.75,5.73-3.23,12.09-4.84,19.07-4.84s13.08,1.58,18.68,4.74c5.6,3.17,10.01,7.94,13.24,14.33,3.23,6.39,4.84,14.47,4.84,24.21v56.73c0,1.32-.46,2.44-1.38,3.36-.93.92-2.04,1.38-3.37,1.38h-16.21c-1.32,0-2.44-.46-3.36-1.38-.92-.92-1.38-2.04-1.38-3.36v-55.15c0-5.93-.86-10.64-2.57-14.13-1.71-3.49-4.02-5.96-6.92-7.41-2.9-1.45-6.13-2.18-9.68-2.18-2.9,0-5.8.72-8.7,2.18-2.9,1.45-5.27,3.92-7.12,7.41-1.85,3.49-2.77,8.2-2.77,14.13v55.15c0,1.32-.46,2.44-1.38,3.36-.92.92-2.04,1.38-3.36,1.38h-16.21c-1.45,0-2.61-.46-3.46-1.38-.86-.92-1.28-2.04-1.28-3.36v-55.15c0-5.93-.93-10.64-2.77-14.13-1.85-3.49-4.22-5.96-7.12-7.41-2.9-1.45-6-2.18-9.29-2.18-3.03,0-6,.76-8.9,2.27-2.9,1.51-5.27,3.99-7.11,7.41-1.85,3.43-2.77,8.1-2.77,14.03v55.15c0,1.32-.46,2.44-1.38,3.36-.92.92-2.04,1.38-3.36,1.38h-16.61Z"/>
      </g>
      <g>
        <path class="cls-1" d="m387.34,774.69C173.77,774.69,0,600.92,0,387.34S173.77,0,387.34,0s387.34,173.77,387.34,387.34-173.77,387.34-387.34,387.34Zm0-720.32c-183.61,0-332.98,149.37-332.98,332.98s149.37,332.98,332.98,332.98,332.98-149.37,332.98-332.98S570.95,54.36,387.34,54.36Z"/>
        <g>
          <circle class="cls-1" cx="268.2" cy="284.73" r="61.28"/>
          <circle class="cls-1" cx="506.49" cy="284.73" r="61.28"/>
        </g>
        <path class="cls-1" d="m506.49,530.69h-238.29c-15.01,0-27.18-12.17-27.18-27.18s12.17-27.18,27.18-27.18h238.29c15.01,0,27.18,12.17,27.18,27.18s-12.17,27.18-27.18,27.18Z"/>
      </g>
    </g>
  </g>
</svg>