<?xml version="1.0" encoding="UTF-8"?>
<svg id="Layer_2" data-name="Layer 2" xmlns="http://www.w3.org/2000/svg" viewBox="0 0 863.8 1059.41">
  <defs>
    <style>
      .cls-1 {
        fill: #3cae76;
      }
    </style>
  </defs>
  <g id="Layer_1-2" data-name="Layer 1">
    <g>
      <g>
        <path class="cls-1" d="m4.74,1057.44c-1.32,0-2.44-.46-3.36-1.38s-1.38-2.04-1.38-3.36v-128.68c0-1.45.46-2.64,1.38-3.56s2.05-1.39,3.36-1.39h86.97c1.45,0,2.64.46,3.56,1.39.92.92,1.38,2.11,1.38,3.56v13.04c0,1.32-.46,2.44-1.38,3.36-.92.92-2.11,1.39-3.56,1.39H26.69v34.99h60.68c1.45,0,2.64.43,3.56,1.28s1.39,2.01,1.39,3.46v12.26c0,1.45-.46,2.6-1.39,3.46s-2.11,1.28-3.56,1.28H26.69v36.18h66.61c1.45,0,2.64.46,3.56,1.38.92.92,1.39,2.11,1.39,3.56v13.05c0,1.32-.46,2.44-1.39,3.36-.92.92-2.11,1.38-3.56,1.38H4.74Z"/>
        <path class="cls-1" d="m116.23,1057.44c-1.19,0-2.21-.43-3.06-1.28-.86-.86-1.28-1.88-1.28-3.06,0-.39.1-.86.3-1.38.2-.52.56-1.19,1.09-1.98l33.61-45.07-31.24-42.3c-.39-.66-.69-1.25-.89-1.78-.2-.52-.3-1.06-.3-1.58,0-1.19.43-2.21,1.28-3.06s1.88-1.28,3.06-1.28h17.2c1.58,0,2.76.39,3.55,1.18.79.79,1.39,1.52,1.78,2.18l22.34,29.65,22.34-29.65c.52-.66,1.15-1.39,1.88-2.18.72-.79,1.88-1.18,3.46-1.18h16.4c1.19,0,2.21.43,3.06,1.28s1.28,1.81,1.28,2.87c0,.66-.1,1.25-.3,1.78s-.49,1.12-.89,1.78l-31.63,42.69,33.8,44.67c.52.79.89,1.45,1.09,1.98.2.52.3.99.3,1.38,0,1.19-.43,2.21-1.28,3.06-.86.86-1.88,1.28-3.06,1.28h-17.99c-1.45,0-2.57-.36-3.36-1.09-.79-.72-1.45-1.42-1.98-2.08l-23.72-31.43-24.12,31.43c-.52.66-1.15,1.35-1.88,2.08-.73.72-1.88,1.09-3.46,1.09h-17.39Z"/>
        <path class="cls-1" d="m273.17,1059.41c-9.48,0-17.82-1.78-25-5.34-7.18-3.56-12.78-8.73-16.8-15.51-4.02-6.79-6.23-14.99-6.62-24.61-.13-1.98-.19-4.58-.19-7.81s.06-5.9.19-8c.4-9.62,2.6-17.83,6.62-24.61,4.02-6.79,9.62-11.96,16.8-15.51,7.18-3.56,15.52-5.34,25-5.34,8.43,0,15.62,1.19,21.55,3.56,5.93,2.37,10.8,5.34,14.63,8.89,3.82,3.56,6.69,7.29,8.6,11.17,1.91,3.88,2.93,7.41,3.06,10.57.13,1.45-.3,2.6-1.28,3.46-.98.86-2.14,1.28-3.46,1.28h-17.4c-1.32,0-2.34-.33-3.06-.99-.72-.66-1.42-1.64-2.08-2.96-1.97-5.27-4.58-8.99-7.81-11.17-3.23-2.18-7.35-3.26-12.35-3.26-6.59,0-11.83,2.08-15.71,6.23-3.89,4.15-5.97,10.71-6.23,19.67-.27,5.01-.27,9.62,0,13.84.26,9.1,2.33,15.68,6.23,19.77,3.88,4.08,9.12,6.13,15.71,6.13,5.14,0,9.29-1.09,12.45-3.26,3.17-2.17,5.74-5.89,7.71-11.17.66-1.32,1.35-2.3,2.08-2.97.72-.66,1.75-.99,3.06-.99h17.4c1.32,0,2.47.43,3.46,1.28.99.86,1.42,2.01,1.28,3.46-.13,2.37-.76,5.04-1.88,8-1.12,2.96-2.9,6-5.34,9.09-2.44,3.1-5.5,5.93-9.19,8.5-3.69,2.57-8.14,4.64-13.34,6.23-5.21,1.59-11.24,2.38-18.09,2.38Z"/>
        <path class="cls-1" d="m385.84,1059.41c-14.63,0-26.23-4.22-34.79-12.65-8.57-8.43-13.18-20.43-13.84-35.98-.13-1.32-.2-3-.2-5.04s.07-3.66.2-4.84c.52-9.88,2.8-18.45,6.82-25.69,4.02-7.25,9.59-12.82,16.7-16.7,7.12-3.88,15.48-5.83,25.11-5.83,10.67,0,19.64,2.21,26.88,6.62,7.24,4.42,12.72,10.54,16.41,18.38,3.69,7.84,5.53,16.9,5.53,27.18v4.15c0,1.32-.46,2.44-1.38,3.36-.92.92-2.11,1.38-3.56,1.38h-65.62v1.58c.13,4.61,1.02,8.87,2.67,12.75,1.65,3.89,4.08,7.02,7.31,9.39,3.23,2.38,7.08,3.56,11.56,3.56,3.69,0,6.79-.56,9.29-1.68s4.55-2.41,6.13-3.85c1.58-1.45,2.7-2.64,3.36-3.56,1.19-1.58,2.14-2.53,2.87-2.87.72-.33,1.81-.49,3.26-.49h17c1.31,0,2.4.39,3.26,1.18.86.8,1.22,1.78,1.09,2.97-.13,2.11-1.22,4.68-3.26,7.71-2.04,3.03-4.98,6-8.8,8.9-3.82,2.9-8.6,5.3-14.33,7.21-5.73,1.91-12.29,2.87-19.67,2.87Zm-21.75-62.26h43.69v-.6c0-5.14-.86-9.62-2.57-13.44-1.71-3.82-4.22-6.85-7.51-9.09-3.3-2.24-7.25-3.36-11.86-3.36s-8.57,1.12-11.86,3.36c-3.3,2.24-5.77,5.27-7.41,9.09-1.65,3.82-2.47,8.3-2.47,13.44v.6Z"/>
        <path class="cls-1" d="m460.56,1057.44c-1.32,0-2.44-.46-3.36-1.38-.92-.92-1.39-2.04-1.39-3.36v-130.86c0-1.32.46-2.44,1.39-3.36.92-.92,2.04-1.38,3.36-1.38h16.41c1.31,0,2.44.46,3.36,1.38.92.92,1.38,2.04,1.38,3.36v130.86c0,1.32-.46,2.44-1.38,3.36-.92.92-2.05,1.38-3.36,1.38h-16.41Z"/>
        <path class="cls-1" d="m512.94,1057.44c-1.32,0-2.44-.46-3.36-1.38-.92-.92-1.39-2.04-1.39-3.36v-130.86c0-1.32.46-2.44,1.39-3.36.92-.92,2.04-1.38,3.36-1.38h16.41c1.32,0,2.44.46,3.36,1.38.92.92,1.38,2.04,1.38,3.36v130.86c0,1.32-.46,2.44-1.38,3.36-.92.92-2.04,1.38-3.36,1.38h-16.41Z"/>
        <path class="cls-1" d="m604.66,1059.41c-14.63,0-26.23-4.22-34.79-12.65-8.57-8.43-13.18-20.43-13.84-35.98-.13-1.32-.2-3-.2-5.04s.07-3.66.2-4.84c.52-9.88,2.8-18.45,6.82-25.69,4.02-7.25,9.59-12.82,16.7-16.7,7.12-3.88,15.48-5.83,25.11-5.83,10.67,0,19.64,2.21,26.88,6.62,7.24,4.42,12.72,10.54,16.41,18.38,3.69,7.84,5.53,16.9,5.53,27.18v4.15c0,1.32-.46,2.44-1.38,3.36-.92.92-2.11,1.38-3.56,1.38h-65.62v1.58c.13,4.61,1.02,8.87,2.67,12.75,1.65,3.89,4.08,7.02,7.31,9.39,3.23,2.38,7.08,3.56,11.56,3.56,3.69,0,6.79-.56,9.29-1.68s4.55-2.41,6.13-3.85c1.58-1.45,2.7-2.64,3.36-3.56,1.19-1.58,2.14-2.53,2.87-2.87.72-.33,1.81-.49,3.26-.49h17c1.31,0,2.4.39,3.26,1.18.86.8,1.22,1.78,1.09,2.97-.13,2.11-1.22,4.68-3.26,7.71-2.04,3.03-4.98,6-8.8,8.9-3.82,2.9-8.6,5.3-14.33,7.21-5.73,1.91-12.29,2.87-19.67,2.87Zm-21.75-62.26h43.69v-.6c0-5.14-.86-9.62-2.57-13.44-1.71-3.82-4.22-6.85-7.51-9.09-3.3-2.24-7.25-3.36-11.86-3.36s-8.57,1.12-11.86,3.36c-3.3,2.24-5.77,5.27-7.41,9.09-1.65,3.82-2.47,8.3-2.47,13.44v.6Z"/>
        <path class="cls-1" d="m679.17,1057.44c-1.32,0-2.44-.46-3.36-1.38-.92-.92-1.38-2.04-1.38-3.36v-93.3c0-1.32.46-2.44,1.38-3.36.92-.92,2.04-1.38,3.36-1.38h16.21c1.32,0,2.44.46,3.36,1.38s1.39,2.05,1.39,3.36v8.11c3.42-4.22,7.81-7.75,13.14-10.58,5.33-2.83,11.96-4.25,19.86-4.25s15.02,1.82,20.95,5.43c5.93,3.63,10.51,8.73,13.74,15.32,3.23,6.59,4.84,14.5,4.84,23.72v55.55c0,1.32-.46,2.44-1.38,3.36s-2.05,1.38-3.36,1.38h-17.4c-1.32,0-2.44-.46-3.36-1.38-.92-.92-1.38-2.04-1.38-3.36v-54.36c0-7.64-1.88-13.64-5.63-17.99-3.76-4.34-9.19-6.52-16.31-6.52s-12.32,2.18-16.41,6.52c-4.08,4.35-6.13,10.35-6.13,17.99v54.36c0,1.32-.46,2.44-1.38,3.36-.92.92-2.05,1.38-3.36,1.38h-17.4Z"/>
        <path class="cls-1" d="m843.04,1057.44c-7.91,0-14.56-1.38-19.96-4.15-5.4-2.77-9.43-6.88-12.06-12.35-2.64-5.47-3.96-12.29-3.96-20.46v-44.87h-15.61c-1.32,0-2.44-.46-3.36-1.38-.92-.92-1.39-2.05-1.39-3.36v-11.47c0-1.32.46-2.44,1.39-3.36.92-.92,2.04-1.38,3.36-1.38h15.61v-32.82c0-1.32.43-2.44,1.28-3.36.86-.92,2.01-1.38,3.46-1.38h16.01c1.31,0,2.44.46,3.36,1.38.92.92,1.38,2.04,1.38,3.36v32.82h24.71c1.32,0,2.44.46,3.37,1.38.92.92,1.38,2.05,1.38,3.36v11.47c0,1.31-.46,2.44-1.38,3.36-.93.92-2.04,1.38-3.37,1.38h-24.71v42.9c0,5.4.96,9.62,2.87,12.65,1.91,3.03,5.24,4.55,9.98,4.55h13.64c1.32,0,2.44.46,3.36,1.38.92.92,1.39,2.05,1.39,3.36v12.26c0,1.32-.46,2.44-1.39,3.36-.92.92-2.04,1.38-3.36,1.38h-16.01Z"/>
      </g>
      <g>
        <path class="cls-1" d="m426.46,774.69c-213.58,0-387.34-173.77-387.34-387.34S212.88,0,426.46,0s387.34,173.77,387.34,387.34-173.77,387.34-387.34,387.34Zm0-720.32c-183.61,0-332.98,149.37-332.98,332.98s149.37,332.98,332.98,332.98,332.98-149.37,332.98-332.98S610.07,54.36,426.46,54.36Z"/>
        <g>
          <circle class="cls-1" cx="307.31" cy="284.73" r="61.28"/>
          <circle class="cls-1" cx="545.6" cy="284.73" r="61.28"/>
        </g>
        <path class="cls-1" d="m307.43,452c-18.06,0-31.08,17.01-26.92,34.59,15.62,66.14,75.03,115.36,145.95,115.36s130.33-49.22,145.95-115.36c4.15-17.58-8.86-34.59-26.92-34.59h-238.04Z"/>
      </g>
    </g>
  </g>
</svg>