<?xml version="1.0" encoding="UTF-8"?>
<svg id="Layer_2" data-name="Layer 2" xmlns="http://www.w3.org/2000/svg" viewBox="0 0 774.69 1059.41">
  <defs>
    <style>
      .cls-1 {
        fill: #e85744;
      }
    </style>
  </defs>
  <g id="Layer_1-2" data-name="Layer 1">
    <g>
      <g>
        <path class="cls-1" d="m186.07,1057.44c-1.31,0-2.44-.46-3.36-1.38s-1.38-2.04-1.38-3.36v-128.68c0-1.45.46-2.64,1.38-3.56s2.05-1.39,3.36-1.39h52.98c10.28,0,19.24,1.62,26.89,4.84,7.64,3.23,13.57,8.11,17.79,14.63,4.22,6.52,6.32,14.66,6.32,24.41s-2.11,18.02-6.32,24.41c-4.22,6.39-10.15,11.17-17.79,14.33-7.65,3.17-16.61,4.75-26.89,4.75h-29.45v46.26c0,1.32-.43,2.44-1.28,3.36-.86.92-2.01,1.38-3.46,1.38h-18.78Zm23.13-72.94h28.86c7.64,0,13.51-1.81,17.6-5.44,4.08-3.62,6.12-8.99,6.12-16.11,0-6.59-1.91-11.89-5.73-15.91-3.82-4.02-9.81-6.03-17.99-6.03h-28.86v43.49Z"/>
        <path class="cls-1" d="m353.3,1059.41c-10.54,0-19.41-1.85-26.58-5.54-7.18-3.69-12.65-8.89-16.41-15.61-3.75-6.73-5.9-14.56-6.42-23.53-.13-2.37-.19-5.27-.19-8.7s.06-6.32.19-8.69c.52-9.1,2.73-16.97,6.62-23.62,3.88-6.65,9.42-11.83,16.61-15.52,7.18-3.69,15.91-5.53,26.19-5.53s19.01,1.85,26.19,5.53c7.18,3.69,12.72,8.87,16.61,15.52,3.88,6.65,6.09,14.53,6.62,23.62.13,2.37.2,5.27.2,8.69s-.07,6.33-.2,8.7c-.52,8.96-2.67,16.8-6.42,23.53-3.75,6.72-9.22,11.93-16.4,15.61-7.18,3.69-16.05,5.54-26.59,5.54Zm0-19.57c6.99,0,12.38-2.21,16.21-6.62,3.82-4.42,5.93-10.9,6.33-19.47.13-1.97.2-4.54.2-7.71s-.07-5.73-.2-7.71c-.4-8.43-2.5-14.89-6.33-19.37-3.82-4.48-9.22-6.72-16.21-6.72s-12.38,2.24-16.21,6.72c-3.82,4.48-5.93,10.94-6.32,19.37-.13,1.98-.2,4.55-.2,7.71s.07,5.74.2,7.71c.39,8.57,2.5,15.06,6.32,19.47,3.82,4.42,9.22,6.62,16.21,6.62Z"/>
        <path class="cls-1" d="m470.31,1059.41c-10.54,0-19.41-1.85-26.58-5.54-7.18-3.69-12.65-8.89-16.41-15.61-3.75-6.73-5.9-14.56-6.42-23.53-.13-2.37-.19-5.27-.19-8.7s.06-6.32.19-8.69c.52-9.1,2.73-16.97,6.62-23.62,3.88-6.65,9.42-11.83,16.61-15.52,7.18-3.69,15.91-5.53,26.19-5.53s19.01,1.85,26.19,5.53c7.18,3.69,12.72,8.87,16.61,15.52,3.88,6.65,6.09,14.53,6.62,23.62.13,2.37.2,5.27.2,8.69s-.07,6.33-.2,8.7c-.52,8.96-2.67,16.8-6.42,23.53-3.75,6.72-9.22,11.93-16.4,15.61-7.18,3.69-16.05,5.54-26.59,5.54Zm0-19.57c6.99,0,12.38-2.21,16.21-6.62,3.82-4.42,5.93-10.9,6.33-19.47.13-1.97.2-4.54.2-7.71s-.07-5.73-.2-7.71c-.4-8.43-2.5-14.89-6.33-19.37-3.82-4.48-9.22-6.72-16.21-6.72s-12.38,2.24-16.21,6.72c-3.82,4.48-5.93,10.94-6.32,19.37-.13,1.98-.2,4.55-.2,7.71s.07,5.74.2,7.71c.39,8.57,2.5,15.06,6.32,19.47,3.82,4.42,9.22,6.62,16.21,6.62Z"/>
        <path class="cls-1" d="m546.61,1057.44c-1.32,0-2.44-.46-3.36-1.38-.92-.92-1.38-2.04-1.38-3.36v-93.1c0-1.45.46-2.64,1.38-3.56s2.04-1.38,3.36-1.38h16.01c1.32,0,2.47.46,3.46,1.38.99.92,1.48,2.11,1.48,3.56v8.1c3.03-4.22,6.95-7.44,11.76-9.68,4.81-2.24,10.38-3.36,16.7-3.36h8.11c1.45,0,2.6.46,3.46,1.38.86.92,1.28,2.05,1.28,3.36v14.23c0,1.32-.43,2.44-1.28,3.36-.86.93-2.01,1.39-3.46,1.39h-15.42c-6.33,0-11.24,1.78-14.73,5.34-3.49,3.55-5.24,8.43-5.24,14.62v54.36c0,1.32-.46,2.44-1.38,3.36-.92.92-2.11,1.38-3.56,1.38h-17.2Z"/>
      </g>
      <g>
        <path class="cls-1" d="m259.36,570.68c-2.74,0-5.53-.42-8.28-1.3-14.3-4.57-22.18-19.87-17.61-34.17,21.48-67.17,83.32-112.3,153.88-112.3s132.41,45.13,153.88,112.3c4.57,14.3-3.32,29.59-17.61,34.17-14.3,4.57-29.59-3.32-34.17-17.61-14.24-44.56-55.27-74.49-102.1-74.49s-87.86,29.94-102.1,74.49c-3.69,11.55-14.38,18.91-25.88,18.91Z"/>
        <path class="cls-1" d="m387.34,774.69C173.77,774.69,0,600.92,0,387.34S173.77,0,387.34,0s387.34,173.77,387.34,387.34-173.77,387.34-387.34,387.34Zm0-720.32c-183.61,0-332.98,149.37-332.98,332.98s149.37,332.98,332.98,332.98,332.98-149.37,332.98-332.98S570.95,54.36,387.34,54.36Z"/>
        <g>
          <circle class="cls-1" cx="268.2" cy="284.73" r="61.28"/>
          <circle class="cls-1" cx="506.49" cy="284.73" r="61.28"/>
        </g>
      </g>
    </g>
  </g>
</svg>