<?xml version="1.0" encoding="UTF-8"?>
<svg id="Layer_2" data-name="Layer 2" xmlns="http://www.w3.org/2000/svg" viewBox="0 0 823.66 1094.99">
  <defs>
    <style>
      .cls-1 {
        fill: #ee1e25;
      }
    </style>
  </defs>
  <g id="Layer_1-2" data-name="Layer 1">
    <g>
      <g>
        <path class="cls-1" d="m50.21,1057.44c-2.11,0-3.76-.52-4.95-1.58-1.18-1.06-2.04-2.37-2.57-3.96L.39,925c-.27-.66-.39-1.25-.39-1.77,0-1.19.39-2.18,1.18-2.97s1.78-1.19,2.97-1.19h17.39c1.85,0,3.26.49,4.25,1.48s1.61,1.95,1.88,2.87l33.41,101.8,33.21-101.8c.39-.92,1.09-1.88,2.08-2.87s2.4-1.48,4.25-1.48h17.4c1.06,0,2.01.4,2.87,1.19.86.79,1.28,1.78,1.28,2.97,0,.52-.13,1.12-.39,1.77l-42.3,126.9c-.52,1.59-1.38,2.9-2.57,3.96-1.18,1.06-2.84,1.58-4.94,1.58h-21.74Z"/>
        <path class="cls-1" d="m174.54,1059.41c-14.63,0-26.23-4.22-34.79-12.65-8.57-8.43-13.18-20.43-13.84-35.98-.13-1.32-.2-3-.2-5.04s.07-3.66.2-4.84c.52-9.88,2.8-18.45,6.82-25.69,4.02-7.25,9.59-12.82,16.7-16.7,7.12-3.88,15.48-5.83,25.11-5.83,10.67,0,19.63,2.21,26.88,6.62,7.24,4.42,12.72,10.54,16.41,18.38,3.69,7.84,5.53,16.9,5.53,27.18v4.15c0,1.32-.46,2.44-1.38,3.36-.92.92-2.11,1.38-3.56,1.38h-65.62v1.58c.13,4.61,1.02,8.87,2.67,12.75,1.65,3.89,4.08,7.02,7.31,9.39,3.23,2.38,7.08,3.56,11.56,3.56,3.69,0,6.79-.56,9.29-1.68s4.55-2.41,6.13-3.85c1.58-1.45,2.7-2.64,3.36-3.56,1.19-1.58,2.14-2.53,2.87-2.87.72-.33,1.81-.49,3.26-.49h17c1.32,0,2.4.39,3.26,1.18.86.8,1.22,1.78,1.09,2.97-.13,2.11-1.22,4.68-3.26,7.71-2.04,3.03-4.98,6-8.8,8.9-3.82,2.9-8.6,5.3-14.33,7.21-5.73,1.91-12.29,2.87-19.67,2.87Zm-21.75-62.26h43.69v-.6c0-5.14-.86-9.62-2.57-13.44-1.71-3.82-4.22-6.85-7.51-9.09-3.3-2.24-7.25-3.36-11.86-3.36s-8.57,1.12-11.86,3.36c-3.3,2.24-5.77,5.27-7.41,9.09-1.65,3.82-2.47,8.3-2.47,13.44v.6Z"/>
        <path class="cls-1" d="m249.05,1057.44c-1.32,0-2.44-.46-3.36-1.38-.92-.92-1.38-2.04-1.38-3.36v-93.1c0-1.45.46-2.64,1.38-3.56.92-.92,2.04-1.38,3.36-1.38h16.01c1.32,0,2.47.46,3.46,1.38.99.92,1.48,2.11,1.48,3.56v8.1c3.03-4.22,6.95-7.44,11.76-9.68,4.81-2.24,10.38-3.36,16.7-3.36h8.11c1.45,0,2.6.46,3.46,1.38.86.92,1.28,2.05,1.28,3.36v14.23c0,1.32-.43,2.44-1.28,3.36-.86.93-2.01,1.39-3.46,1.39h-15.42c-6.33,0-11.24,1.78-14.73,5.34-3.49,3.55-5.24,8.43-5.24,14.62v54.36c0,1.32-.46,2.44-1.38,3.36-.92.92-2.11,1.38-3.56,1.38h-17.2Z"/>
        <path class="cls-1" d="m345.32,1094.99c-1.06,0-1.98-.4-2.77-1.19-.79-.79-1.18-1.71-1.18-2.76,0-.53.03-1.03.1-1.48.07-.46.3-1.03.69-1.68l15.41-36.57-37.95-89.54c-.53-1.32-.79-2.24-.79-2.76.13-1.19.59-2.21,1.38-3.06s1.78-1.28,2.97-1.28h16.01c1.58,0,2.77.39,3.56,1.18.79.79,1.38,1.65,1.78,2.57l26.29,64.64,27.08-64.64c.4-1.05.99-1.94,1.78-2.67.79-.72,1.98-1.09,3.56-1.09h15.81c1.06,0,2.01.39,2.87,1.18.86.79,1.28,1.71,1.28,2.77,0,.79-.27,1.85-.79,3.16l-55.94,129.47c-.52,1.06-1.19,1.94-1.98,2.67-.79.72-1.97,1.09-3.55,1.09h-15.62Z"/>
        <path class="cls-1" d="m487.43,1057.44c-1.32,0-2.44-.46-3.36-1.38-.92-.92-1.38-2.04-1.38-3.36v-128.68c0-1.45.46-2.64,1.38-3.56.92-.92,2.04-1.39,3.36-1.39h57.32c10.68,0,19.37,1.62,26.09,4.84,6.73,3.23,11.7,7.68,14.92,13.34,3.23,5.67,4.84,12.26,4.84,19.77,0,5.01-.89,9.39-2.67,13.14s-3.95,6.82-6.52,9.19c-2.57,2.37-5.11,4.22-7.61,5.53,5.14,2.37,9.69,6.33,13.64,11.86,3.95,5.54,5.93,12.12,5.93,19.77s-1.78,14.96-5.34,21.15c-3.56,6.2-8.83,11.04-15.81,14.53-6.99,3.49-15.62,5.24-25.9,5.24h-58.9Zm22.74-81.63h31.03c6.99,0,12.22-1.68,15.71-5.04,3.49-3.36,5.24-7.74,5.24-13.14s-1.75-9.85-5.24-12.95c-3.49-3.09-8.73-4.64-15.71-4.64h-31.03v35.78Zm0,60.68h33.01c7.12,0,12.52-1.94,16.21-5.83,3.69-3.88,5.53-8.6,5.53-14.13s-1.88-10.6-5.63-14.43c-3.76-3.82-9.13-5.73-16.11-5.73h-33.01v40.13Z"/>
        <path class="cls-1" d="m645.77,1059.41c-6.85,0-13.05-1.36-18.59-4.05-5.53-2.7-9.92-6.33-13.14-10.87-3.23-4.55-4.84-9.65-4.84-15.32,0-9.22,3.72-16.57,11.17-22.04,7.44-5.47,17.29-9.13,29.55-10.97l27.08-3.95v-4.16c0-5.53-1.38-9.81-4.15-12.84-2.77-3.03-7.51-4.55-14.23-4.55-4.75,0-8.6.96-11.56,2.87-2.97,1.91-5.18,4.45-6.62,7.61-1.06,1.71-2.57,2.57-4.55,2.57h-15.61c-1.45,0-2.54-.4-3.26-1.19-.72-.79-1.09-1.85-1.09-3.16.13-2.11.99-4.68,2.57-7.71,1.58-3.03,4.08-5.96,7.51-8.8s7.84-5.24,13.24-7.22c5.4-1.97,11.93-2.96,19.57-2.96,8.31,0,15.32,1.02,21.05,3.06,5.73,2.05,10.31,4.78,13.74,8.2,3.42,3.43,5.93,7.44,7.51,12.06,1.58,4.61,2.37,9.48,2.37,14.62v62.07c0,1.32-.46,2.44-1.38,3.36-.93.92-2.04,1.38-3.37,1.38h-16.01c-1.45,0-2.6-.46-3.46-1.38-.86-.92-1.28-2.04-1.28-3.36v-7.71c-1.71,2.5-4.02,4.84-6.92,7.02-2.9,2.17-6.42,3.95-10.57,5.34-4.15,1.38-9.06,2.08-14.72,2.08Zm6.72-18.78c4.61,0,8.79-.99,12.55-2.97,3.75-1.97,6.72-5.04,8.89-9.19,2.18-4.15,3.26-9.39,3.26-15.71v-4.15l-19.77,3.17c-7.78,1.18-13.57,3.09-17.4,5.73-3.82,2.64-5.73,5.86-5.73,9.68,0,2.9.89,5.37,2.67,7.41,1.78,2.04,4.05,3.56,6.82,4.55,2.77.99,5.66,1.48,8.7,1.48Z"/>
        <path class="cls-1" d="m766.94,1059.41c-6.85,0-12.88-1.16-18.08-3.46-5.21-2.3-9.52-5.56-12.95-9.78-3.43-4.22-6.06-9.19-7.9-14.92-1.85-5.73-2.9-12.02-3.17-18.87-.13-2.37-.19-4.51-.19-6.42s.06-4.05.19-6.42c.27-6.59,1.28-12.72,3.06-18.38,1.78-5.66,4.42-10.64,7.91-14.92,3.49-4.28,7.84-7.61,13.05-9.98,5.2-2.37,11.23-3.56,18.08-3.56s13.14,1.22,18.08,3.66c4.94,2.44,9.06,5.57,12.35,9.39v-43.88c0-1.32.43-2.44,1.28-3.36.86-.92,2.01-1.38,3.46-1.38h16.8c1.32,0,2.44.46,3.36,1.38.92.92,1.38,2.04,1.38,3.36v130.86c0,1.32-.46,2.44-1.38,3.36-.92.92-2.04,1.38-3.36,1.38h-15.62c-1.45,0-2.6-.46-3.46-1.38-.86-.92-1.28-2.04-1.28-3.36v-7.32c-3.3,4.09-7.48,7.45-12.55,10.08-5.07,2.64-11.43,3.96-19.07,3.96Zm7.31-21.15c5.54,0,9.95-1.25,13.25-3.76,3.29-2.5,5.73-5.7,7.31-9.59,1.58-3.88,2.44-7.87,2.57-11.96.13-2.37.2-4.9.2-7.61s-.07-5.24-.2-7.61c-.13-3.95-1.06-7.74-2.77-11.36-1.71-3.63-4.22-6.62-7.51-8.99-3.29-2.37-7.58-3.56-12.85-3.56-5.53,0-9.92,1.22-13.14,3.66-3.23,2.44-5.57,5.63-7.02,9.59-1.45,3.95-2.3,8.3-2.57,13.04-.13,3.96-.13,7.91,0,11.86.27,4.75,1.12,9.1,2.57,13.05,1.45,3.95,3.79,7.15,7.02,9.59,3.23,2.44,7.61,3.66,13.14,3.66Z"/>
      </g>
      <g>
        <path class="cls-1" d="m534.7,563.76c18.06,0,31.08-17.01,26.92-34.59-15.62-66.14-75.03-115.36-145.95-115.36s-130.33,49.22-145.95,115.36c-4.15,17.58,8.86,34.59,26.92,34.59h238.04Z"/>
        <path class="cls-1" d="m415.68,774.69c-213.58,0-387.34-173.77-387.34-387.34S202.1,0,415.68,0s387.34,173.77,387.34,387.34-173.77,387.34-387.34,387.34Zm0-720.32c-183.61,0-332.98,149.37-332.98,332.98s149.37,332.98,332.98,332.98,332.98-149.37,332.98-332.98S599.29,54.36,415.68,54.36Z"/>
        <g>
          <circle class="cls-1" cx="296.54" cy="284.73" r="61.28"/>
          <circle class="cls-1" cx="534.83" cy="284.73" r="61.28"/>
        </g>
      </g>
    </g>
  </g>
</svg>