<?xml version="1.0" encoding="UTF-8"?><svg id="Layer_2" xmlns="http://www.w3.org/2000/svg" viewBox="0 0 49.08 41.71"><defs><style>.cls-1{fill:#fff;stroke-width:0px;}</style></defs><g id="Layer_1-2"><circle class="cls-1" cx="9.22" cy="9.22" r="9.22"/><path class="cls-1" d="m22.72,41.71c-10.59,0-19.29-8.19-20.13-18.56-.07-.88.65-1.63,1.53-1.63h9.29c.75,0,1.39.54,1.51,1.28.61,3.75,3.87,6.62,7.79,6.62s7.18-2.87,7.79-6.62c.12-.74.76-1.28,1.51-1.28h9.29c.89,0,1.61.75,1.53,1.63-.83,10.38-9.54,18.56-20.13,18.56Z"/><path class="cls-1" d="m36.89,4.77c-6.2,0-11.33,4.59-12.18,10.57-.13.92.6,1.73,1.53,1.73h21.3c.93,0,1.66-.81,1.53-1.73-.84-5.97-5.97-10.57-12.18-10.57Z"/></g></svg>