<?xml version="1.0" encoding="UTF-8"?>
<svg id="Layer_2" data-name="Layer 2" xmlns="http://www.w3.org/2000/svg" viewBox="0 0 170.08 41.91">
  <defs>
    <style>
      .cls-1 {
        fill: #fff;
      }

      .cls-2 {
        fill: #59be49;
      }

      .cls-3 {
        fill: #596aef;
      }

      .cls-4 {
        fill: #ff7111;
      }
    </style>
  </defs>
  <g id="Layer_1-2" data-name="Layer 1">
    <g>
      <g>
        <circle class="cls-3" cx="9.22" cy="9.22" r="9.22"/>
        <path class="cls-4" d="m22.72,41.71c-10.59,0-19.29-8.19-20.13-18.56-.07-.88.65-1.63,1.53-1.63h9.29c.75,0,1.39.54,1.51,1.28.61,3.75,3.87,6.62,7.79,6.62s7.18-2.87,7.79-6.62c.12-.74.76-1.28,1.51-1.28h9.29c.89,0,1.61.75,1.53,1.63-.83,10.38-9.54,18.56-20.13,18.56Z"/>
        <path class="cls-2" d="m36.89,4.77c-6.2,0-11.33,4.59-12.18,10.57-.13.92.6,1.73,1.53,1.73h21.3c.93,0,1.66-.81,1.53-1.73-.84-5.97-5.97-10.57-12.18-10.57Z"/>
      </g>
      <g>
        <path class="cls-1" d="m79.01,15.62c-.72-1.66-1.83-2.97-3.31-3.92-1.48-.95-3.22-1.43-5.22-1.43-1.88,0-3.57.43-5.06,1.3s-2.67,2.1-3.54,3.71c-.87,1.6-1.3,3.46-1.3,5.58s.43,3.99,1.3,5.6c.87,1.61,2.05,2.86,3.54,3.72s3.18,1.3,5.06,1.3c1.76,0,3.34-.38,4.75-1.14,1.41-.76,2.54-1.84,3.4-3.25.86-1.41,1.34-3.05,1.46-4.93h-10.63v-2.06h13.3v1.84c-.12,2.22-.72,4.22-1.81,6.02-1.08,1.8-2.54,3.21-4.36,4.25-1.82,1.04-3.86,1.55-6.13,1.55s-4.46-.55-6.36-1.64c-1.9-1.1-3.4-2.63-4.5-4.59-1.1-1.96-1.64-4.19-1.64-6.67s.55-4.7,1.64-6.67c1.1-1.96,2.6-3.49,4.5-4.59s4.02-1.65,6.36-1.65c2.7,0,5.06.68,7.09,2.02,2.02,1.35,3.49,3.23,4.41,5.64h-2.96Z"/>
        <path class="cls-1" d="m91.03,32.5c-1.48-.83-2.65-2.01-3.51-3.54-.86-1.53-1.28-3.32-1.28-5.37s.43-3.84,1.3-5.37,2.05-2.71,3.54-3.54c1.49-.83,3.17-1.25,5.02-1.25s3.54.42,5.04,1.25c1.51.83,2.69,2.01,3.54,3.54.86,1.53,1.28,3.32,1.28,5.37s-.43,3.81-1.3,5.35c-.87,1.54-2.06,2.73-3.58,3.56s-3.21,1.25-5.06,1.25-3.52-.42-5.01-1.25Zm8.62-1.84c1.11-.59,2.01-1.48,2.69-2.67s1.03-2.66,1.03-4.39-.34-3.2-1.01-4.39c-.68-1.19-1.57-2.08-2.67-2.67-1.11-.59-2.31-.89-3.62-.89s-2.51.3-3.61.89c-1.11.59-1.99,1.48-2.66,2.67-.66,1.19-.99,2.66-.99,4.39s.33,3.2.99,4.39c.66,1.19,1.54,2.08,2.64,2.67,1.1.59,2.3.88,3.6.88s2.51-.29,3.62-.88Z"/>
        <path class="cls-1" d="m124.1,20.7c-1.42,1.33-3.55,1.99-6.4,1.99h-5.1v10.77h-2.53V8.19h7.63c2.82,0,4.95.66,6.38,1.99s2.15,3.08,2.15,5.28-.71,3.92-2.13,5.24Zm-.47-5.24c0-1.69-.47-2.96-1.41-3.83-.94-.87-2.45-1.3-4.52-1.3h-5.1v10.19h5.1c3.95,0,5.93-1.69,5.93-5.06Z"/>
        <path class="cls-1" d="m129.47,18.23c.81-1.53,1.93-2.71,3.36-3.54s3.05-1.25,4.86-1.25,3.5.43,4.86,1.3c1.36.87,2.34,1.98,2.95,3.33v-4.34h2.53v19.74h-2.53v-4.37c-.63,1.35-1.62,2.46-2.98,3.34-1.36.88-2.98,1.32-4.86,1.32s-3.39-.42-4.83-1.26c-1.43-.84-2.55-2.04-3.36-3.58-.81-1.54-1.21-3.33-1.21-5.35s.4-3.8,1.21-5.33Zm15.06,1.17c-.65-1.2-1.54-2.13-2.66-2.78-1.12-.65-2.36-.98-3.71-.98s-2.65.31-3.76.94-1.98,1.54-2.62,2.73c-.64,1.19-.96,2.61-.96,4.25s.32,3.03.96,4.25c.64,1.22,1.51,2.15,2.62,2.78,1.11.64,2.36.96,3.76.96s2.58-.33,3.71-.98c1.12-.65,2.01-1.58,2.66-2.78s.98-2.6.98-4.19-.33-2.99-.98-4.19Z"/>
        <polygon class="cls-1" points="156.07 41.91 158.71 41.91 170.08 13.73 167.48 13.73 160.97 30.57 154.25 13.73 151.46 13.73 159.56 33.35 156.07 41.91"/>      </g>
    </g>
  </g>
</svg>
