<?xml version="1.0" encoding="UTF-8" standalone="no"?>
<!-- Created with Inkscape (http://www.inkscape.org/) -->

<svg
   version="1.1"
   id="svg1004"
   xml:space="preserve"
   width="394.0387"
   height="334.8866"
   viewBox="0 0 394.0387 334.8866"
   xmlns="http://www.w3.org/2000/svg"
   xmlns:svg="http://www.w3.org/2000/svg"><defs
     id="defs1008" /><g
     id="g1010"
     transform="matrix(1.3333333,0,0,-1.3333333,-1168.9805,-745.00997)"><g
       id="g1268"
       transform="matrix(5.5377937,0,0,5.5377937,1277.6594,-1090.3004)"><path
         d="m 0,0 c 0,-5.538 -4.49,-10.027 -10.028,-10.027 -5.538,0 -10.028,4.489 -10.028,10.027 0,5.538 4.49,10.028 10.028,10.028 C -4.49,10.028 0,5.538 0,0"
         style="fill:#596aef;fill-opacity:1;fill-rule:nonzero;stroke:none"
         id="path1022"
         transform="translate(-52.341798,85.956596)" /><path
         d="m 0,0 c -11.51,0 -20.979,8.903 -21.885,20.184 -0.077,0.96 0.706,1.773 1.669,1.773 h 10.1 c 0.815,0 1.512,-0.588 1.643,-1.392 0.667,-4.075 4.213,-7.194 8.473,-7.194 4.26,0 7.806,3.119 8.473,7.194 0.132,0.804 0.828,1.392 1.643,1.392 h 10.1 c 0.963,0 1.746,-0.813 1.669,-1.773 C 20.979,8.903 11.509,0 0,0"
         style="fill:#ff7111;fill-opacity:1;fill-rule:nonzero;stroke:none"
         id="path1026"
         transform="translate(-47.691901,50.629901)" /><path
         d="m 0,0 c -6.745,0 -12.324,-4.995 -13.239,-11.487 -0.14,-0.997 0.654,-1.883 1.661,-1.883 h 23.155 c 1.007,0 1.802,0.886 1.661,1.883 C 12.323,-4.995 6.745,0 0,0"
         style="fill:#59be49;fill-opacity:1;fill-rule:nonzero;stroke:none"
         id="path1030"
         transform="translate(-32.2862,90.795398)" /></g></g></svg>
